<svg width="48" height="19" viewBox="0 0 48 19" fill="none" xmlns="http://www.w3.org/2000/svg">
<path d="M3.50304 19L0.30304 0.0513945H3.71637L6.16972 15.5338L13.8764 0.0513945H17.2631L7.66306 19H3.50304ZM15.9047 19L18.358 4.18518C18.5536 3.05545 18.9003 2.19104 19.398 1.59194C19.9136 0.992835 20.518 0.582024 21.2114 0.359503C21.9047 0.136981 22.6069 0.0342776 23.318 0.0513945C24.7936 0.0513945 26.1803 0.0770706 27.478 0.128422C28.7758 0.179773 30.0647 0.248241 31.3447 0.333826L30.918 2.97842H23.7447C23.0691 2.97842 22.5536 3.14104 22.198 3.46626C21.8603 3.79148 21.6291 4.28788 21.5047 4.95545L20.918 8.55004L28.758 8.75545L28.3314 11.246L20.4647 11.4257L19.2114 19H15.9047ZM30.8266 19L33.9466 0.0513945H41.2799C42.9688 0.0513945 44.2755 0.31671 45.1999 0.847341C46.1421 1.37797 46.7999 2.13968 47.1732 3.13248C47.5466 4.10815 47.7332 5.28066 47.7332 6.65004C47.7332 7.19781 47.7066 7.76267 47.6532 8.34464C47.5999 8.9095 47.5288 9.47437 47.4399 10.0392C47.191 11.5284 46.8266 12.8379 46.3466 13.9676C45.8666 15.0802 45.2443 16.0131 44.4799 16.7663C43.7155 17.5023 42.8088 18.0586 41.7599 18.4352C40.711 18.8117 39.511 19 38.1599 19H30.8266ZM34.6132 16.15H38.4799C39.3332 16.15 40.0799 15.996 40.7199 15.6879C41.3599 15.3627 41.9021 14.9176 42.3466 14.3527C42.791 13.7708 43.1555 13.069 43.4399 12.2473C43.7421 11.4257 43.9732 10.51 44.1332 9.50004C44.2221 8.91808 44.2932 8.39599 44.3466 7.93383C44.3999 7.45456 44.4266 7.06085 44.4266 6.75275C44.4266 5.86267 44.3021 5.13518 44.0532 4.57031C43.8221 4.00545 43.4132 3.58608 42.8266 3.31221C42.2577 3.03833 41.4755 2.9014 40.4799 2.9014H36.7732L34.6132 16.15Z" fill="white"/>
</svg>
